<svg width="766" height="973" viewBox="0 0 766 973" fill="none" xmlns="http://www.w3.org/2000/svg">
<path d="M636.657 315.066C637.007 321.256 636.997 326.316 636.637 326.316C636.277 326.316 635.987 323.826 635.987 320.776C635.987 310.116 631.217 277.316 629.387 275.396C628.277 274.236 628.337 276.626 629.637 284.816C632.327 301.686 632.967 311.506 631.977 320.676C631.487 325.296 630.297 325.916 625.277 324.216C623.197 323.506 620.887 322.826 620.147 322.696C618.057 322.336 617.637 321.556 617.557 317.806C617.487 314.376 617.417 314.326 613.177 314.316C610.557 314.316 609.107 314.706 609.487 315.316C609.827 315.866 609.207 316.316 608.107 316.316C607.007 316.316 605.827 316.766 605.487 317.316C604.587 318.776 601.417 318.536 600.077 316.916C599.437 316.156 597.247 315.196 595.197 314.806C592.057 314.186 591.797 313.956 593.487 313.266C595.187 312.576 595.227 312.446 593.737 312.386C592.777 312.346 591.977 311.976 591.977 311.566C591.967 311.156 591.677 309.756 591.327 308.456C590.777 306.386 590.967 306.176 592.837 306.766C594.017 307.146 594.987 307.166 594.987 306.816C594.987 305.406 591.577 302.876 589.627 302.846C588.487 302.836 587.087 301.916 586.517 300.816C585.837 299.486 584.477 298.816 582.487 298.816C579.797 298.816 579.347 298.356 578.157 294.316C576.607 289.106 576.427 288.666 574.387 285.316L572.867 282.816L573.317 286.316C573.567 288.236 574.727 294.936 575.877 301.186C577.037 307.436 577.947 313.966 577.887 315.686C577.837 317.406 576.687 312.736 575.337 305.316C571.487 284.106 571.327 283.416 567.597 272.116C558.127 243.476 542.827 221.216 516.427 197.646C500.567 183.476 475.227 170.116 454.267 164.836C430.007 158.736 396.917 158.896 374.127 165.216C355.387 170.406 339.157 177.966 323.987 188.556C320.967 190.676 320.007 191.146 321.877 189.606C323.737 188.076 326.657 185.546 328.377 184.006C331.097 181.536 331.177 181.336 328.987 182.416C327.607 183.096 323.957 185.376 320.867 187.486C315.327 191.256 311.687 192.256 310.497 190.336C310.117 189.716 309.157 189.816 307.907 190.586C306.287 191.596 305.757 191.546 304.967 190.316C304.337 189.316 304.017 189.236 304.007 190.066C303.997 190.756 303.057 191.316 301.917 191.316C300.307 191.316 299.987 190.876 300.487 189.316C300.907 187.976 300.597 187.106 299.557 186.706C297.347 185.856 297.607 184.576 300.157 183.756C301.677 183.276 302.737 183.616 303.647 184.866C305.447 187.326 306.267 186.186 305.037 182.956C304.397 181.256 304.387 180.316 305.007 180.316C305.547 180.316 305.987 180.766 305.987 181.316C305.987 181.866 306.457 182.316 307.027 182.316C307.727 182.316 307.717 181.676 306.987 180.316C306.397 179.216 305.017 178.316 303.917 178.316C301.077 178.316 299.197 171.596 301.227 168.696C301.667 168.076 301.347 167.026 300.497 166.326C299.667 165.636 298.987 165.406 298.987 165.806C298.987 166.206 298.097 165.476 297.017 164.176L295.057 161.816L295.017 164.066C294.987 166.406 293.577 167.076 292.457 165.276C292.107 164.706 290.897 164.526 289.777 164.886C288.417 165.316 287.967 165.166 288.417 164.426C288.797 163.816 288.597 163.316 287.977 163.316C287.357 163.316 286.167 162.646 285.347 161.816C284.007 160.486 284.337 160.316 288.297 160.316C292.327 160.316 292.867 160.026 294.027 157.226C295.567 153.486 294.107 151.966 289.737 152.766C288.227 153.036 286.987 153.016 286.987 152.716C286.987 151.746 289.807 149.316 290.937 149.316C291.537 149.316 292.527 148.226 293.137 146.896C293.737 145.556 295.397 144.176 296.807 143.826C298.227 143.466 298.927 142.876 298.357 142.496C296.647 141.356 295.997 138.426 297.277 137.616C298.667 136.736 299.167 136.616 302.157 136.436C303.347 136.376 304.047 136.036 303.707 135.706C303.017 135.016 308.267 130.316 309.727 130.316C311.097 130.316 315.417 126.406 314.757 125.756C314.457 125.456 311.127 126.816 307.347 128.776C303.577 130.736 301.387 131.606 302.487 130.706C306.427 127.486 332.717 115.436 344.487 111.446C359.887 106.226 370.547 103.746 385.487 101.896C410.927 98.7455 428.047 99.0055 452.987 102.896C478.947 106.956 509.137 118.906 533.567 134.786C564.417 154.866 589.227 181.366 606.377 212.566C607.817 215.176 610.027 219.226 611.307 221.566C624.417 245.576 634.927 284.316 636.657 315.066ZM577.067 914.816L577.087 971.816L520.667 972.076C473.937 972.286 464.047 972.096 463.107 970.966C462.277 969.966 462.047 946.256 462.227 882.206L462.487 794.816H541.467L559.227 818.246L576.987 841.666L577.017 849.746C577.037 854.186 577.057 883.466 577.067 914.816ZM759.347 965.066C758.767 972.106 758.677 972.316 756.117 972.236C753.557 972.156 729.517 967.146 715.487 963.776C693.557 958.496 632.327 945.316 629.737 945.316C627.587 945.316 629.657 942.366 634.277 938.846C642.097 932.876 668.287 912.206 669.857 910.766C671.447 909.296 669.397 905.416 662.187 896.266C648.477 878.876 639.677 867.536 630.167 855.026C615.547 835.776 610.797 829.556 599.387 814.656C593.977 807.596 590.327 802.436 591.267 803.186C592.217 803.946 592.987 804.106 592.987 803.556C592.987 802.296 590.477 800.166 589.787 800.846C589.507 801.136 588.647 800.566 587.877 799.586C586.617 797.976 586.647 797.936 588.237 799.186C589.197 799.946 589.987 800.256 589.987 799.896C589.987 798.936 581.777 787.076 579.177 784.296C577.977 782.996 576.987 781.596 576.987 781.186C576.987 779.876 578.817 779.236 579.487 780.316C579.837 780.886 580.497 781.126 580.947 780.846C581.397 780.566 582.277 780.966 582.917 781.726C583.837 782.836 584.677 782.886 587.097 781.966C590.707 780.606 593.947 774.876 592.127 773.056C591.497 772.426 590.997 770.996 591.017 769.866C591.047 767.946 591.137 767.926 592.377 769.566C593.107 770.526 594.757 771.316 596.047 771.316C597.867 771.316 598.117 771.046 597.187 770.116C595.737 768.666 595.587 766.946 596.987 767.816C597.537 768.156 597.987 767.976 597.987 767.426C597.987 766.866 597.197 765.976 596.237 765.426C594.947 764.696 594.777 764.146 595.607 763.306C597.017 761.886 603.467 762.986 605.077 764.916C606.627 766.786 608.347 766.696 607.617 764.796C607.137 763.546 607.397 763.466 609.007 764.326C610.647 765.206 610.987 765.066 610.987 763.556C610.987 762.546 611.457 761.246 612.017 760.686C613.717 758.986 614.907 749.156 613.657 747.156C613.057 746.196 612.877 745.096 613.247 744.716C614.177 743.796 616.987 746.216 616.987 747.936C616.987 748.696 617.387 749.316 617.867 749.316C618.357 749.316 620.887 751.456 623.497 754.066C626.377 756.946 627.977 758.026 627.557 756.816C626.957 755.056 627.047 754.996 628.297 756.316C629.067 757.146 634.817 764.566 641.067 772.816C647.317 781.066 656.497 792.986 661.477 799.316C666.457 805.646 674.457 815.986 679.237 822.316C691.217 838.136 711.917 865.226 715.167 869.326C717.537 872.316 718.107 872.576 720.167 871.596C721.437 870.986 731.847 863.006 743.277 853.866C754.717 844.726 764.407 837.456 764.817 837.706C765.217 837.956 765.217 842.586 764.817 847.986C764.167 856.676 761.927 906.086 760.457 944.316C760.167 951.746 759.667 961.076 759.347 965.066ZM422.987 758.316C422.987 788.566 422.767 813.316 422.497 813.316C422.227 813.316 421.897 796.106 421.747 775.066C421.607 754.026 421.197 737.486 420.847 738.316C420.487 739.146 419.817 742.046 419.347 744.776L418.487 749.746L413.987 749.816C411.507 749.856 408.447 750.546 407.167 751.356C405.047 752.696 404.707 752.626 403.007 750.566C401.717 748.996 400.087 748.316 397.577 748.316C395.197 748.316 393.987 747.856 393.987 746.936C393.987 744.266 391.067 742.846 387.967 744.016C385.817 744.826 384.667 744.776 383.297 743.816C382.287 743.116 379.227 742.306 376.477 742.026C369.347 741.286 365.867 740.296 362.777 738.136C360.497 736.536 359.757 736.446 358.037 737.516C356.287 738.616 355.807 738.496 354.537 736.686C353.627 735.396 351.417 734.316 348.777 733.876C346.417 733.486 342.237 732.706 339.487 732.136C333.527 730.916 327.097 730.686 321.107 731.466C317.397 731.956 316.657 731.756 316.237 730.176C315.977 729.156 315.387 728.316 314.947 728.316C313.667 728.316 312.837 722.976 312.327 711.496C312.067 705.626 311.777 699.036 311.667 696.856C311.517 693.606 311.907 692.686 313.837 691.716C316.067 690.596 316.097 690.466 314.337 689.376C312.587 688.286 312.597 688.246 314.487 688.736C323.157 690.986 337.857 694.336 339.487 694.426C341.047 694.526 341.127 694.646 339.817 694.986C338.907 695.236 334.257 694.506 329.487 693.376C328.787 693.206 328.137 693.046 327.527 692.906C322.207 691.636 320.517 691.236 320.287 691.656C320.177 691.846 320.387 692.216 320.687 692.766C320.757 692.896 320.837 693.046 320.927 693.196C321.477 694.236 323.177 695.326 324.707 695.616C326.237 695.916 329.287 696.616 331.487 697.176C337.967 698.836 341.037 699.316 349.487 699.966C358.337 700.666 358.847 699.756 350.767 697.686C344.177 695.996 348.047 696.466 363.417 699.216C375.187 701.316 400.167 703.286 415.237 703.306L422.987 703.316V758.316ZM468.987 275.766C467.607 276.476 465.367 277.366 463.987 277.726C462.607 278.096 463.777 277.246 466.587 275.846C469.387 274.446 472.497 272.406 473.487 271.306C475.147 269.486 475.157 269.316 473.607 269.316C472.677 269.316 470.817 270.036 469.477 270.916C466.757 272.696 460.287 273.616 459.497 272.326C458.787 271.186 456.527 271.616 454.547 273.266C453.297 274.296 452.617 274.346 451.747 273.476C451.107 272.836 448.757 272.316 446.517 272.316C443.127 272.316 441.597 271.566 437.307 267.816C434.477 265.336 431.667 263.316 431.047 263.316C430.437 263.316 429.667 261.956 429.337 260.296C428.997 258.636 428.337 257.036 427.857 256.736C427.377 256.436 426.987 255.096 426.987 253.756C426.987 251.176 425.547 250.466 424.577 252.566C423.037 255.876 425.397 239.276 426.977 235.666C429.327 230.266 435.387 224.276 441.567 221.236C445.537 219.286 448.037 218.816 454.487 218.816C461.497 218.826 463.167 219.196 467.927 221.816C474.677 225.536 479.167 230.076 482.097 236.146C485.187 242.526 485.177 253.836 482.067 260.886C479.767 266.096 473.167 273.606 468.987 275.766ZM267.547 172.416C267.857 172.916 267.177 173.316 266.047 173.316C264.917 173.316 263.987 172.816 263.987 172.206C263.987 171.596 263.337 171.356 262.537 171.656C261.517 172.046 261.277 171.736 261.707 170.606C262.117 169.526 261.937 169.226 261.157 169.706C258.527 171.336 260.217 168.666 262.987 166.816C264.637 165.716 265.987 164.326 265.987 163.736C265.987 163.136 267.327 161.446 268.967 159.986C272.137 157.166 278.687 155.806 278.237 158.066C278.097 158.756 278.467 159.316 279.057 159.316C280.747 159.316 283.177 162.196 282.467 163.346C282.107 163.926 281.057 164.156 280.117 163.856C278.907 163.476 278.097 164.186 277.267 166.386C276.247 169.086 275.867 169.316 274.027 168.336C272.887 167.726 271.507 167.496 270.967 167.826C270.427 168.166 269.987 167.706 269.987 166.816C269.987 165.926 269.537 165.476 268.987 165.816C268.317 166.226 268.337 167.096 269.027 168.396C269.837 169.906 269.727 170.476 268.537 170.936C267.687 171.256 267.247 171.926 267.547 172.416ZM304.737 196.376C303.367 198.086 299.947 199.676 300.117 198.526C300.427 196.486 299.827 195.316 298.487 195.316C297.657 195.316 296.987 194.876 296.987 194.346C296.987 193.816 297.617 193.616 298.387 193.916C299.157 194.206 300.077 193.976 300.447 193.386C301.337 191.946 303.097 192.086 305.327 193.776C306.827 194.906 306.947 195.516 306.007 196.996C304.917 198.696 304.877 198.686 305.417 196.816C305.917 195.076 305.827 195.016 304.737 196.376ZM297.527 180.246C296.317 182.216 294.987 181.346 294.967 178.566C294.957 175.766 293.777 173.076 292.627 173.226C292.277 173.276 291.987 173.086 291.987 172.816V171.846C291.987 171.586 292.997 171.756 294.237 172.216C295.477 172.676 296.497 173.736 296.497 174.586C296.507 175.426 297.637 177.056 298.997 178.216C300.397 179.396 300.767 180.066 299.837 179.746C298.927 179.436 297.897 179.656 297.527 180.246ZM292.327 204.756C293.027 206.576 291.847 207.466 290.137 206.416C289.167 205.806 289.207 205.376 290.327 204.456C291.447 203.516 291.877 203.586 292.327 204.756ZM309.987 192.116C309.987 194.526 309.467 194.906 308.437 193.226C308.067 192.626 308.267 191.636 308.877 191.026C309.687 190.216 309.987 190.496 309.987 192.116Z" fill="#18C9D0"/>
<path d="M629.857 758.238C629.047 757.208 628.497 756.538 628.297 756.318C627.047 754.998 626.957 755.058 627.557 756.818C627.977 758.028 626.377 756.948 623.497 754.068C620.887 751.458 618.357 749.318 617.867 749.318C617.387 749.318 616.987 748.698 616.987 747.938C616.987 746.218 614.177 743.798 613.247 744.718C612.877 745.098 613.057 746.198 613.657 747.158C614.907 749.158 613.718 758.988 612.018 760.688C611.458 761.248 610.987 762.548 610.987 763.558C610.987 765.068 610.648 765.208 609.008 764.328C607.398 763.468 607.137 763.548 607.617 764.798C608.347 766.698 606.628 766.788 605.078 764.918C603.468 762.988 597.017 761.888 595.607 763.308C594.777 764.148 594.947 764.698 596.237 765.428C597.197 765.978 597.987 766.868 597.987 767.428C597.987 767.978 597.537 768.158 596.987 767.818C595.587 766.948 595.737 768.668 597.188 770.118C598.118 771.048 597.867 771.318 596.047 771.318C594.757 771.318 593.108 770.528 592.378 769.568C591.138 767.928 591.048 767.948 591.018 769.868C590.998 770.998 591.498 772.428 592.128 773.058C593.948 774.878 590.707 780.608 587.097 781.968C584.677 782.888 583.837 782.838 582.917 781.728C582.277 780.968 581.398 780.568 580.948 780.848C580.498 781.128 579.837 780.888 579.487 780.318C578.817 779.238 576.987 779.878 576.987 781.188C576.987 781.598 577.977 782.998 579.177 784.298C581.777 787.078 589.987 798.938 589.987 799.898C589.987 800.258 589.197 799.948 588.237 799.188C587.827 798.868 587.528 798.638 587.318 798.488C587.108 798.168 586.987 797.968 586.987 797.918C586.987 797.608 581.467 790.478 574.727 782.078C567.977 773.688 559.887 763.438 556.747 759.318C538.957 735.968 516.577 707.068 499.438 685.318C493.588 677.898 487.027 669.458 484.857 666.568C480.357 660.568 479.877 660.458 467.347 662.768C444.977 666.888 436.417 667.638 412.987 667.588C365.807 667.478 325.387 658.268 282.387 637.838C276.007 634.798 270.387 632.568 269.887 632.878C269.377 633.198 268.987 653.438 268.987 680.018C268.987 719.288 268.757 726.768 267.557 727.708C266.397 728.608 266.007 734.258 265.527 757.318C265.207 772.988 264.737 788.068 264.497 790.818C264.247 793.568 263.797 803.018 263.477 811.818C262.777 831.438 262.267 835.318 260.367 835.318C259.577 835.318 258.637 834.528 258.297 833.568C257.077 830.168 250.847 825.268 248.097 825.548C245.827 825.788 245.517 825.478 245.757 823.198C245.947 821.268 245.287 820.078 243.257 818.728C241.737 817.708 239.917 816.998 239.227 817.148C237.197 817.568 236.677 814.608 238.347 812.208C240.657 808.918 238.987 806.528 234.787 807.108C232.977 807.368 231.807 807.228 232.207 806.808C232.607 806.388 231.817 804.718 230.457 803.098C229.097 801.488 227.987 799.748 227.987 799.238C227.987 798.738 226.437 798.318 224.547 798.318C222.657 798.318 220.817 797.848 220.457 797.278C220.107 796.708 218.958 796.508 217.908 796.848C216.698 797.228 215.948 796.968 215.878 796.138C215.818 795.408 215.627 793.238 215.447 791.318C214.867 784.858 213.967 767.988 212.977 744.918C212.427 732.318 211.887 720.618 211.767 718.918C211.637 717.208 211.297 726.618 210.987 739.818C210.667 753.778 210.337 731.168 210.207 685.748L209.987 607.688L235.487 582.418C249.507 568.518 261.317 557.298 261.737 557.488C262.147 557.668 267.048 560.818 272.628 564.478C291.528 576.898 314.417 588.428 329.987 593.358C367.267 605.168 392.218 609.088 423.188 607.998C459.088 606.738 500.687 596.028 529.987 580.508C589.297 549.088 637.968 493.618 660.448 431.818C662.448 426.318 664.507 420.798 665.027 419.538C667.017 414.738 673.207 387.458 675.157 374.928C679.037 349.878 678.677 308.698 674.347 283.318C671.997 269.568 664.378 241.748 659.438 228.918C650.238 205.038 636.207 179.698 621.477 160.358C597.477 128.858 571.267 106.598 537.487 89.0083C529.237 84.7083 523.318 81.4483 524.318 81.7583C525.518 82.1183 526.007 81.8783 525.747 81.0683C525.267 79.6283 518.977 77.2883 514.277 76.8083C512.507 76.6283 507.327 75.1083 502.777 73.4483C486.147 67.3683 467.637 63.0283 448.487 60.7383C444.327 60.2383 443.097 59.8083 444.487 59.3183C450.517 57.1983 403.567 53.3683 394.037 55.1983C390.987 55.7883 382.407 57.2183 374.987 58.3883C367.567 59.5583 354.517 62.2683 345.997 64.4083C337.477 66.5583 329.827 68.3283 328.997 68.3383C328.167 68.3483 326.367 69.2383 324.987 70.3183C323.607 71.3983 321.797 72.2883 320.947 72.2983C320.107 72.3083 317.647 73.2183 315.487 74.3183C309.277 77.4883 305.797 76.6483 309.557 72.8883C310.937 71.5183 310.937 71.3183 309.617 71.3183C307.937 71.3183 307.767 67.3383 309.447 67.2883C310.017 67.2683 311.327 66.1083 312.347 64.7083C314.167 62.2083 314.167 62.1583 312.247 62.4883C311.177 62.6683 310.337 62.3683 310.387 61.8183C310.447 61.2683 311.857 60.8583 313.537 60.9183C315.817 60.9883 316.617 60.5483 316.727 59.1683C316.807 58.0983 316.207 57.3183 315.307 57.3183C314.197 57.3183 313.887 56.6183 314.217 54.8683C314.607 52.8283 314.257 52.3683 312.087 52.1183C310.577 51.9483 309.487 51.1883 309.487 50.3183C309.487 49.3583 310.297 48.9083 311.737 49.0583C313.627 49.2583 313.987 48.8083 313.987 46.2783C313.987 43.9583 314.577 43.0383 316.567 42.2883C317.997 41.7483 319.537 41.5383 319.997 41.8283C320.467 42.1083 321.127 41.4383 321.487 40.3283C321.837 39.2283 322.717 38.3183 323.447 38.3183C324.737 38.3183 326.467 41.0483 326.147 42.5683C326.057 42.9783 326.657 43.3183 327.487 43.3183C328.317 43.3183 328.987 44.0383 328.987 44.9283C328.987 45.9483 328.437 46.3183 327.477 45.9583C326.647 45.6383 324.847 45.7983 323.477 46.3183C321.647 47.0183 320.987 47.9983 321.007 50.0483C321.027 55.2783 322.448 56.0083 326.158 52.7083C335.588 44.3183 336.207 43.5683 335.517 41.4283C335.157 40.2683 334.197 39.3183 333.387 39.3183C331.137 39.3183 324.467 32.2583 325.887 31.3783C327.307 30.4983 326.378 27.6783 324.408 26.9283C322.758 26.2883 322.467 22.3183 324.067 22.3183C326.477 22.3183 324.137 19.8383 321.547 19.6383C315.467 19.1683 317.197 16.8183 323.607 16.8183C326.197 16.8183 328.397 17.3683 328.867 18.1283C329.447 19.0583 331.407 19.2983 335.787 18.9583C341.227 18.5383 341.977 18.7083 342.527 20.4583C343.337 22.9983 345.137 22.3783 346.787 18.9983C347.517 17.4983 348.927 16.3183 349.987 16.3183C352.397 16.3183 353.467 14.5983 352.077 12.9283C350.807 11.3983 351.627 10.3183 354.067 10.3183C355.037 10.3183 355.968 9.87828 356.158 9.33828C356.568 8.12828 372.737 4.93829 387.487 3.14829C400.647 1.55829 437.257 1.55828 451.487 3.15828C463.057 4.45828 483.967 8.00828 488.807 9.48828C490.637 10.0483 492.367 10.2683 492.657 9.97829C493.207 9.42829 489.507 8.26828 479.487 5.83828L473.487 4.38828L478.487 4.94828C495.957 6.90828 537.667 21.7283 562.847 34.9183C573.747 40.6283 592.788 52.2983 601.508 58.6283C607.758 63.1483 628.787 81.1083 636.867 88.8183C669.617 120.058 701.247 169.718 716.477 213.818C717.417 216.568 718.558 219.718 719.008 220.818C724.598 234.728 731.737 269.188 735.367 299.818C737.167 315.038 736.767 350.978 734.587 368.558C731.897 390.258 726.187 419.448 722.607 429.818C721.837 432.018 720.427 436.518 719.457 439.818C716.527 449.748 707.308 472.558 700.448 486.818C693.748 500.748 677.757 526.218 666.557 540.818C635.907 580.748 596.238 613.618 553.568 634.438C547.008 637.638 541.287 640.618 540.847 641.058C540.407 641.498 543.458 646.128 547.628 651.338C551.808 656.548 562.367 670.268 571.107 681.818C579.837 693.368 589.797 706.448 593.237 710.878C596.677 715.318 603.087 723.588 607.487 729.258C618.937 744.018 622.657 748.818 629.857 758.238ZM161.637 541.148C155.117 547.288 149.397 552.318 148.917 552.318C148.427 552.318 148.477 551.168 149.007 549.748C150.437 545.998 150.257 545.428 147.427 544.718C145.807 544.308 145.057 543.568 145.397 542.698C146.147 540.748 145.027 538.318 143.377 538.318C142.617 538.318 141.987 537.958 141.987 537.508C141.987 537.068 141.408 535.908 140.698 534.938C139.578 533.408 139.037 533.338 136.637 534.428C134.087 535.588 133.687 535.468 131.677 532.968C130.467 531.468 128.367 529.688 126.987 529.018C125.557 528.318 124.077 526.398 123.527 524.558C123.007 522.778 122.187 521.318 121.717 521.318C121.257 521.318 121.147 520.868 121.487 520.318C121.827 519.778 122.277 518.438 122.477 517.348C122.877 515.288 131.757 505.788 152.737 484.968C159.467 478.288 164.977 472.388 164.987 471.868C164.987 471.338 163.077 472.688 160.737 474.848C158.397 477.008 163.227 471.928 171.477 463.548C179.717 455.168 186.687 448.318 186.957 448.318C187.227 448.318 182.297 453.488 175.987 459.818C169.677 466.148 164.907 471.318 165.387 471.318C165.867 471.318 171.257 466.508 177.377 460.628C188.147 450.268 191.878 446.118 188.868 447.818C188.108 448.248 188.287 447.758 189.257 446.718C190.237 445.688 191.817 444.838 192.757 444.828C193.777 444.818 194.427 444.108 194.357 443.108C194.277 442.148 198.017 437.738 202.767 433.158L211.317 424.938L206.647 411.378C197.657 385.278 193.887 361.328 193.897 330.318C193.897 276.228 209.087 230.718 242.297 185.348C251.017 173.438 281.027 145.088 292.487 137.928C294.137 136.898 297.767 134.328 300.547 132.218C301.047 131.828 301.607 131.428 302.207 131.028C302.227 131.258 304.257 130.388 307.347 128.778C311.127 126.818 314.457 125.458 314.757 125.758C315.417 126.408 311.097 130.318 309.727 130.318C308.267 130.318 303.017 135.018 303.707 135.708C304.047 136.038 303.348 136.378 302.158 136.438C299.168 136.618 298.667 136.738 297.277 137.618C295.997 138.428 296.647 141.358 298.357 142.498C298.927 142.878 298.227 143.468 296.807 143.828C295.397 144.178 293.737 145.558 293.137 146.898C292.527 148.228 291.538 149.318 290.938 149.318C289.808 149.318 286.987 151.748 286.987 152.718C286.987 153.018 288.227 153.038 289.737 152.768C294.107 151.968 295.567 153.488 294.027 157.228C292.867 160.028 292.327 160.318 288.297 160.318C284.337 160.318 284.007 160.488 285.347 161.818C286.167 162.648 287.357 163.318 287.977 163.318C288.597 163.318 288.797 163.818 288.417 164.428C287.967 165.168 288.417 165.318 289.777 164.888C290.897 164.528 292.107 164.708 292.457 165.278C293.577 167.078 294.987 166.408 295.017 164.068L295.057 161.818L297.017 164.178C298.097 165.478 298.987 166.208 298.987 165.808C298.987 165.408 299.667 165.638 300.497 166.328C301.347 167.028 301.667 168.078 301.227 168.698C299.197 171.598 301.077 178.318 303.917 178.318C305.017 178.318 306.397 179.218 306.987 180.318C307.717 181.678 307.727 182.318 307.027 182.318C306.457 182.318 305.987 181.868 305.987 181.318C305.987 180.768 305.547 180.318 305.007 180.318C304.387 180.318 304.397 181.258 305.037 182.958C306.267 186.188 305.447 187.328 303.647 184.868C302.737 183.618 301.678 183.278 300.158 183.758C297.608 184.578 297.347 185.858 299.557 186.708C300.597 187.108 300.907 187.978 300.487 189.318C299.987 190.878 300.307 191.318 301.917 191.318C303.057 191.318 303.997 190.758 304.007 190.068C304.017 189.238 304.337 189.318 304.967 190.318C305.757 191.548 306.288 191.598 307.908 190.588C309.158 189.818 310.117 189.718 310.497 190.338C311.687 192.258 315.327 191.258 320.867 187.488C323.957 185.378 327.607 183.098 328.987 182.418C331.177 181.338 331.098 181.538 328.378 184.008C326.658 185.548 323.738 188.078 321.878 189.608C320.728 190.548 320.647 190.738 321.447 190.258C315.737 194.308 310.417 198.658 305.637 203.228C296.637 211.838 284.357 227.258 277.307 238.818C276.107 240.788 266.637 259.908 264.917 263.818C263.647 266.718 260.527 276.678 258.177 285.318C245.727 331.158 252.337 382.098 275.927 422.068C277.637 424.958 278.607 427.318 278.087 427.318C277.577 427.318 276.897 426.758 276.577 426.068C276.267 425.378 276.257 425.838 276.567 427.078C277.167 429.488 274.807 431.998 245.417 460.258C238.307 467.098 219.217 485.588 202.987 501.338C186.757 517.088 168.157 534.998 161.637 541.148ZM414.867 908.838C414.107 909.578 412.287 910.478 410.817 910.838C407.697 911.608 406.288 909.708 406.188 904.568C406.047 897.628 403.317 894.968 400.927 899.438C399.847 901.438 399.707 901.458 398.137 899.818C397.077 898.698 396.877 897.928 397.597 897.658C398.207 897.438 399.557 896.598 400.597 895.818C402.347 894.488 402.207 894.378 398.717 894.348C395.677 894.328 394.727 893.828 393.807 891.818C392.557 889.078 391.437 888.638 390.637 890.568C390.327 891.328 389.857 890.928 389.438 889.568C389.058 888.328 388.127 887.318 387.367 887.318C386.607 887.318 385.987 886.868 385.987 886.318C385.987 885.768 384.867 885.318 383.487 885.318C382.107 885.318 380.987 884.868 380.987 884.318C380.987 883.768 381.697 883.318 382.557 883.318C385.427 883.318 383.677 879.838 380.637 879.488C377.937 879.178 377.827 879.318 378.477 882.288C379.757 888.088 375.187 890.358 371.517 885.758C369.557 883.288 366.957 882.708 361.597 883.528C358.797 883.958 358.448 881.468 361.158 880.328C363.368 879.388 363.337 879.348 360.487 879.478C354.467 879.758 352.797 879.328 352.287 877.348C352.007 876.268 350.918 875.118 349.878 874.788C348.838 874.448 347.577 873.408 347.067 872.468C345.817 870.128 337.597 866.148 335.587 866.918C334.427 867.368 334.127 867.118 334.547 866.028C335.307 864.038 333.017 862.668 331.867 864.438C331.237 865.418 331.857 866.578 333.977 868.388C335.637 869.808 336.987 871.268 336.987 871.638C336.987 873.228 332.107 872.118 328.987 869.818C324.717 866.668 324.187 866.688 322.857 870.068C321.827 872.708 321.747 872.728 320.967 870.708C320.517 869.548 319.067 867.738 317.727 866.688C316.397 865.638 314.837 863.888 314.267 862.798C313.247 860.848 311.667 843.338 310.227 817.818L309.487 804.818L308.947 820.818C308.657 829.618 308.317 803.408 308.197 762.568L307.987 688.318H310.408C310.828 688.318 311.867 688.478 313.357 688.748C313.577 688.898 313.897 689.108 314.337 689.378C316.097 690.468 316.067 690.598 313.837 691.718C311.907 692.688 311.517 693.608 311.667 696.858C311.777 699.038 312.067 705.628 312.327 711.498C312.837 722.978 313.667 728.318 314.947 728.318C315.387 728.318 315.977 729.158 316.237 730.178C316.657 731.758 317.397 731.958 321.107 731.468C327.097 730.688 333.527 730.918 339.487 732.138C342.237 732.708 346.417 733.488 348.777 733.878C351.417 734.318 353.627 735.398 354.537 736.688C355.807 738.498 356.287 738.618 358.037 737.518C359.757 736.448 360.497 736.538 362.777 738.138C365.867 740.298 369.347 741.288 376.477 742.028C379.227 742.308 382.287 743.118 383.297 743.818C384.667 744.778 385.817 744.828 387.967 744.018C391.067 742.848 393.987 744.268 393.987 746.938C393.987 747.858 395.197 748.318 397.577 748.318C400.087 748.318 401.717 748.998 403.007 750.568C404.707 752.628 405.047 752.698 407.167 751.358C408.447 750.548 411.507 749.858 413.987 749.818L418.487 749.748L419.347 744.778C419.817 742.048 420.487 739.148 420.847 738.318C421.197 737.488 421.607 754.028 421.747 775.068C421.867 791.828 422.097 806.158 422.327 811.298C422.247 812.388 422.167 812.928 422.077 812.878C420.837 812.108 420.147 823.578 419.427 856.958C418.767 887.518 417.077 906.668 414.867 908.838ZM532.957 397.068C533.017 399.528 421.297 397.738 411.987 395.128C409.507 394.438 407.247 393.938 406.947 394.018C406.657 394.108 406.317 393.048 406.207 391.658C405.897 387.938 405.217 387.318 401.487 387.318C397.257 387.318 396.287 385.898 398.947 383.618C400.067 382.658 400.987 381.398 400.987 380.818C400.987 379.688 395.547 377.058 392.917 376.908C391.107 376.808 387.987 373.948 387.987 372.388C387.987 371.798 387.057 371.318 385.927 371.318C384.797 371.318 384.147 370.868 384.487 370.318C384.827 369.768 384.657 369.318 384.117 369.318C383.577 369.318 382.987 368.528 382.797 367.568C382.607 366.608 381.787 365.788 380.977 365.738C376.297 365.468 372.527 363.508 367.327 358.618C362.137 353.758 361.117 353.198 358.207 353.668C355.317 354.138 354.667 353.798 352.707 350.768C351.487 348.888 349.977 347.338 349.347 347.328C348.717 347.328 345.947 345.068 343.177 342.318C340.417 339.568 338.567 337.318 339.067 337.318C339.577 337.318 339.987 336.648 339.987 335.818C339.987 334.988 339.537 334.318 338.987 334.318C337.727 334.318 337.658 328.638 338.908 327.868C339.418 327.548 340.127 325.948 340.487 324.308C340.847 322.658 341.557 321.318 342.067 321.318C342.577 321.318 342.987 320.698 342.987 319.938C342.987 319.178 343.667 317.998 344.507 317.298C345.337 316.608 346.767 314.418 347.688 312.428C348.598 310.448 351.247 305.828 353.577 302.178C362.167 288.688 365.837 281.058 362.837 282.918C362.117 283.358 361.947 283.188 362.387 282.468C362.787 281.838 363.727 281.318 364.477 281.318C366.117 281.318 367.417 277.828 366.397 276.168C365.947 275.438 366.117 275.278 366.857 275.738C367.547 276.158 368.807 275.528 369.847 274.248C371.327 272.418 372.167 272.168 374.567 272.838C376.177 273.288 377.717 273.698 377.987 273.748C379.317 274.008 381.087 275.638 382.097 277.528C383.047 279.308 382.967 279.528 381.577 278.988C380.227 278.468 380.117 278.698 380.967 280.288C382.337 282.848 384.548 284.228 383.688 281.978C382.697 279.398 383.638 280.008 386.128 283.568C387.638 285.728 387.837 286.358 386.697 285.448C383.717 283.048 384.727 286.038 389.057 292.418C394.537 300.498 402.587 311.458 404.457 313.398C405.297 314.278 405.987 315.508 405.987 316.148C405.987 316.798 406.327 317.318 406.747 317.318C407.167 317.318 408.627 319.128 409.997 321.328C411.357 323.538 413.008 325.138 413.658 324.888C414.308 324.638 415.437 325.198 416.167 326.128C417.357 327.648 417.307 327.678 415.737 326.448C412.827 324.168 413.727 326.418 419.097 334.818C425.207 344.398 430.417 350.948 433.057 352.358C436.217 354.048 438.647 351.908 445.557 341.358C452.467 330.818 453.508 328.558 449.408 333.008C447.118 335.498 452.177 328.378 462.797 314.138C468.377 306.668 472.747 306.808 477.667 314.608C479.127 316.928 483.617 323.218 487.657 328.598C491.687 333.988 494.987 339.048 494.987 339.848C494.987 340.658 495.618 341.318 496.378 341.318C497.148 341.318 498.048 342.038 498.388 342.918C498.728 343.798 503.157 350.368 508.247 357.518C523.427 378.868 523.917 379.618 523.357 380.528C522.487 381.938 525.857 386.308 527.357 385.728C528.117 385.438 529.028 385.968 529.378 386.898C529.928 388.328 529.788 388.398 528.508 387.338C526.008 385.258 526.777 387.688 529.957 391.888C531.597 394.048 532.947 396.378 532.957 397.068ZM575.008 304.318C571.728 285.088 571.377 283.558 567.597 272.118C571.327 283.418 571.487 284.108 575.337 305.318C576.687 312.738 577.838 317.408 577.888 315.688C577.948 313.968 577.038 307.438 575.878 301.188C574.728 294.938 573.568 288.238 573.318 286.318L572.867 282.818L574.388 285.318C576.428 288.668 576.607 289.108 578.157 294.318C579.347 298.358 579.797 298.818 582.487 298.818C584.477 298.818 585.838 299.488 586.518 300.818C587.088 301.918 588.488 302.838 589.628 302.848C591.578 302.878 594.987 305.408 594.987 306.818C594.987 307.168 594.017 307.148 592.837 306.768C590.967 306.178 590.778 306.388 591.328 308.458C591.678 309.758 591.967 311.158 591.977 311.568C591.977 311.978 592.777 312.348 593.737 312.388C595.227 312.448 595.187 312.578 593.487 313.268C591.797 313.958 592.058 314.188 595.198 314.808C597.248 315.198 599.438 316.158 600.078 316.918C601.418 318.538 604.587 318.778 605.487 317.318C605.827 316.768 607.007 316.318 608.107 316.318C609.207 316.318 609.827 315.868 609.487 315.318C609.107 314.708 610.557 314.318 613.177 314.318C617.417 314.328 617.487 314.378 617.557 317.808C617.637 321.558 618.057 322.338 620.147 322.698C620.887 322.828 623.197 323.508 625.277 324.218C630.297 325.918 631.487 325.298 631.977 320.678C632.967 311.508 632.328 301.688 629.638 284.818C628.338 276.628 628.278 274.238 629.388 275.398C631.218 277.318 635.987 310.118 635.987 320.778C635.987 323.638 636.248 325.998 636.578 326.288C636.748 343.408 636.077 362.038 634.607 370.318C633.577 376.088 632.367 381.718 631.927 382.818C631.177 384.658 631.107 384.628 631.047 382.398C630.937 378.198 629.967 380.758 627.467 391.818C626.127 397.718 624.657 403.058 624.188 403.688C623.718 404.308 622.538 407.068 621.568 409.818C616.858 423.138 613.077 430.328 610.117 431.548C608.667 432.148 607.137 432.568 606.717 432.468C603.447 431.758 597.537 432.178 597.207 433.148C596.997 433.788 595.537 434.318 593.967 434.318C592.387 434.318 590.797 434.808 590.427 435.418C590.057 436.018 588.457 436.318 586.867 436.088C585.287 435.858 583.987 436.088 583.987 436.598C583.987 437.968 579.638 436.648 575.638 434.068C572.358 431.948 571.237 428.748 573.247 427.248C573.667 426.938 572.317 425.798 570.247 424.708C567.237 423.128 566.427 422.088 566.167 419.458C565.907 416.808 565.587 416.398 564.467 417.338C563.317 418.288 563.178 417.828 563.638 414.648C563.938 412.538 564.807 409.398 565.587 407.668C566.357 405.938 566.987 403.758 566.987 402.818C566.987 401.888 567.627 399.928 568.417 398.468C571.877 392.058 574.198 381.448 571.818 382.928C571.048 383.398 570.847 383.118 571.237 382.098C572.057 379.968 574.647 369.358 576.547 360.318C578.557 350.808 579.707 322.118 578.217 319.038C577.627 317.818 576.178 311.198 575.008 304.318ZM165.157 705.568C163.667 709.778 162.147 710.248 159.487 707.318C158.487 706.218 156.607 705.318 155.307 705.318C153.467 705.318 152.797 704.638 152.327 702.268C151.877 700.038 150.697 698.698 147.897 697.268C145.787 696.198 143.367 695.318 142.517 695.318C141.667 695.318 139.227 694.058 137.097 692.518C133.287 689.748 133.247 689.668 134.717 686.768C137.957 680.348 156.427 663.318 160.137 663.318C160.797 663.318 162.127 662.588 163.107 661.708C164.777 660.198 164.947 660.288 165.647 662.958C167.007 668.088 166.627 701.438 165.157 705.568ZM466.667 276.818C460.517 279.378 451.327 279.678 445.317 277.528C435.927 274.168 427.718 265.908 426.378 258.448C426.018 256.448 425.287 254.268 424.757 253.598C424.627 253.428 424.517 253.168 424.438 252.838C424.477 252.768 424.527 252.678 424.577 252.568C425.547 250.468 426.987 251.178 426.987 253.758C426.987 255.098 427.377 256.438 427.857 256.738C428.337 257.038 428.997 258.638 429.337 260.298C429.667 261.958 430.437 263.318 431.047 263.318C431.667 263.318 434.477 265.338 437.307 267.818C441.597 271.568 443.127 272.318 446.517 272.318C448.757 272.318 451.107 272.838 451.747 273.478C452.617 274.348 453.297 274.298 454.547 273.268C456.527 271.618 458.787 271.188 459.497 272.328C460.287 273.618 466.757 272.698 469.477 270.918C470.817 270.038 472.677 269.318 473.607 269.318C475.157 269.318 475.147 269.488 473.487 271.308C472.497 272.408 469.387 274.448 466.587 275.848C463.777 277.248 462.607 278.098 463.987 277.728C464.777 277.518 465.848 277.138 466.878 276.728C466.808 276.758 466.737 276.788 466.667 276.818ZM267.547 172.418C267.247 171.928 267.687 171.258 268.537 170.938C269.727 170.478 269.837 169.908 269.027 168.398C268.337 167.098 268.317 166.228 268.987 165.818C269.537 165.478 269.987 165.928 269.987 166.818C269.987 167.708 270.427 168.168 270.967 167.828C271.507 167.498 272.887 167.728 274.027 168.338C275.867 169.318 276.247 169.088 277.267 166.388C278.097 164.188 278.907 163.478 280.117 163.858C281.057 164.158 282.107 163.928 282.467 163.348C283.177 162.198 280.747 159.318 279.057 159.318C278.467 159.318 278.097 158.758 278.237 158.068C278.687 155.808 272.137 157.168 268.967 159.988C267.327 161.448 265.987 163.138 265.987 163.738C265.987 164.328 264.637 165.718 262.987 166.818C260.217 168.668 258.528 171.338 261.158 169.708C261.938 169.228 262.117 169.528 261.707 170.608C261.277 171.738 261.517 172.048 262.537 171.658C263.337 171.358 263.987 171.598 263.987 172.208C263.987 172.818 264.917 173.318 266.047 173.318C267.177 173.318 267.857 172.918 267.547 172.418ZM557.747 455.888C557.437 456.198 553.977 456.578 550.057 456.728C544.307 456.948 542.517 456.638 540.797 455.158C538.817 453.438 538.787 453.198 540.337 451.488C541.247 450.488 541.987 449.208 541.987 448.668C541.987 447.308 546.327 443.318 547.797 443.318C548.457 443.318 548.987 443.658 548.987 444.068C548.987 444.478 550.347 446.398 551.997 448.318C553.647 450.238 555.247 452.608 555.557 453.568C555.867 454.528 556.617 455.318 557.217 455.318C557.827 455.318 558.067 455.578 557.747 455.888ZM340.337 694.848C340.897 694.988 341.447 695.128 341.987 695.268C343.937 695.768 346.007 696.258 348.167 696.718C347.027 696.638 347.917 696.958 350.767 697.688C358.847 699.758 358.337 700.668 349.487 699.968C341.037 699.318 337.967 698.838 331.487 697.178C329.287 696.618 326.237 695.918 324.707 695.618C323.177 695.328 321.477 694.238 320.927 693.198C320.837 693.048 320.758 692.898 320.688 692.768C320.387 692.218 320.177 691.848 320.287 691.658C320.517 691.238 322.207 691.638 327.527 692.908C328.137 693.048 328.787 693.208 329.487 693.378C334.257 694.508 338.907 695.238 339.817 694.988C340.027 694.938 340.197 694.888 340.337 694.848ZM329.987 31.9483C329.987 32.7083 330.677 33.3183 331.527 33.3183C332.377 33.3183 332.997 32.7583 332.917 32.0683C332.577 29.4783 333.027 28.2183 334.057 28.8583C334.647 29.2283 334.877 30.1783 334.567 30.9683C334.237 31.8283 334.437 32.1583 335.067 31.7683C335.647 31.4083 335.877 30.4883 335.587 29.7183C335.237 28.8083 335.747 28.3183 337.037 28.3183C338.717 28.3183 338.927 27.8383 338.447 25.0983C337.577 20.1783 333.987 18.4183 333.987 22.9083C333.987 24.3383 333.087 26.6483 331.987 28.0483C330.887 29.4483 329.987 31.1983 329.987 31.9483ZM304.737 196.378C305.827 195.018 305.917 195.078 305.417 196.818C304.877 198.688 304.917 198.698 306.007 196.998C306.947 195.518 306.827 194.908 305.327 193.778C303.097 192.088 301.337 191.948 300.447 193.388C300.077 193.978 299.157 194.208 298.387 193.918C297.617 193.618 296.987 193.818 296.987 194.348C296.987 194.878 297.657 195.318 298.487 195.318C299.827 195.318 300.427 196.488 300.117 198.528C299.947 199.678 303.367 198.088 304.737 196.378ZM297.527 180.248C297.897 179.658 298.927 179.438 299.837 179.748C300.767 180.068 300.397 179.398 298.997 178.218C297.637 177.058 296.507 175.428 296.497 174.588C296.497 173.738 295.477 172.678 294.237 172.218C292.997 171.758 291.987 171.588 291.987 171.848V172.818C291.987 173.088 292.278 173.278 292.628 173.228C293.778 173.078 294.957 175.768 294.967 178.568C294.987 181.348 296.317 182.218 297.527 180.248ZM588.698 800.458C589.178 800.858 589.607 801.038 589.787 800.848C590.477 800.168 592.987 802.298 592.987 803.558C592.987 804.108 592.218 803.948 591.268 803.188C590.328 802.438 593.978 807.598 599.388 814.658C610.798 829.558 615.547 835.778 630.167 855.028C617.267 838.048 612.787 832.178 598.217 813.158C594.217 807.928 590.688 803.218 588.698 800.458ZM198.438 438.488C195.418 441.678 195.177 442.138 197.417 440.448C200.037 438.478 203.658 434.318 202.748 434.318C202.558 434.318 200.618 436.198 198.438 438.488ZM292.327 204.758C291.877 203.588 291.447 203.518 290.327 204.458C289.207 205.378 289.167 205.808 290.137 206.418C291.847 207.468 293.027 206.578 292.327 204.758ZM309.987 192.118C309.987 190.498 309.688 190.218 308.878 191.028C308.268 191.638 308.067 192.628 308.438 193.228C309.467 194.908 309.987 194.528 309.987 192.118ZM327.857 185.938C341.917 176.698 356.968 169.968 374.128 165.218C357.948 169.698 341.937 176.928 327.857 185.938ZM318.987 44.3183C318.987 44.8683 319.437 45.3183 319.987 45.3183C320.537 45.3183 320.987 44.8683 320.987 44.3183C320.987 43.7683 320.537 43.3183 319.987 43.3183C319.437 43.3183 318.987 43.7683 318.987 44.3183ZM635.818 305.078C634.928 296.908 633.517 288.378 631.677 279.868C632.797 284.898 633.828 290.058 634.758 295.318C635.188 297.748 635.548 301.108 635.818 305.078ZM434.987 351.318C434.987 351.868 434.787 352.318 434.547 352.318C434.307 352.318 433.827 351.868 433.487 351.318C433.147 350.768 433.347 350.318 433.927 350.318C434.507 350.318 434.987 350.768 434.987 351.318ZM519.487 79.3183C520.257 80.5583 519.907 80.5583 517.987 79.3183C517.087 78.7383 516.967 78.3383 517.677 78.3383C518.337 78.3283 519.147 78.7683 519.487 79.3183ZM393.017 101.038C397.957 100.508 402.907 100.078 407.487 99.7983C411.127 99.5783 415.778 99.5783 420.938 99.7883C412.007 99.5783 403.107 100.008 393.017 101.038ZM309.378 126.738C315.808 123.258 324.087 119.478 332.767 115.998C324.717 119.368 315.598 123.558 309.378 126.738ZM424.227 249.808C424.317 245.808 425.357 239.748 426.787 236.158C425.817 238.878 424.637 245.728 424.227 249.808ZM319.087 689.898C324.167 690.978 330.707 692.468 336.697 693.938C332.697 693.128 325.337 691.438 319.087 689.898ZM388.777 702.098C393.817 702.458 398.987 702.738 404.237 702.928L414.487 703.308C407.237 703.268 397.857 702.798 388.777 702.098ZM355.667 107.908C358.947 106.918 362.077 106.068 364.987 105.378C367.107 104.888 369.627 104.378 372.417 103.888C366.807 104.938 361.457 106.218 355.667 107.908ZM477.597 267.848C479.497 265.488 481.138 262.998 482.068 260.888C482.218 260.548 482.357 260.208 482.487 259.848C482.357 260.218 482.207 260.578 482.057 260.928C481.117 263.128 479.517 265.548 477.597 267.848ZM657.357 794.038C658.947 796.088 660.357 797.888 661.487 799.318C666.107 805.198 673.347 814.558 678.188 820.928C673.347 814.558 666.107 805.198 661.477 799.318C660.307 797.828 658.897 796.028 657.357 794.038Z" fill="#169EE0"/>
<path d="M161.633 541.148C168.153 534.998 186.753 517.088 202.983 501.338C219.213 485.588 238.303 467.098 245.413 460.258C274.803 431.998 277.163 429.488 276.563 427.078C276.253 425.838 276.263 425.378 276.573 426.068C276.893 426.758 277.573 427.318 278.083 427.318C278.603 427.318 277.633 424.958 275.923 422.068C271.863 415.188 268.303 407.988 265.263 400.538C257.513 381.868 253.113 361.328 252.193 340.528C251.343 321.988 253.303 303.258 258.173 285.318C253.333 303.158 251.363 321.938 252.193 340.528C253.133 361.198 257.543 381.658 265.263 400.538C266.423 403.348 267.663 406.108 268.983 408.818C278.883 429.278 290.493 445.688 305.133 459.938C324.413 478.708 342.833 490.318 365.123 497.758C374.883 501.018 390.173 504.698 397.983 505.668C399.903 505.908 409.133 505.978 418.483 505.828C440.013 505.478 452.233 503.088 471.983 495.378C481.223 491.768 484.103 490.308 494.483 484.018C522.633 466.948 544.033 443.418 559.323 412.708C564.963 401.368 568.183 393.738 571.153 383.128C571.283 383.188 571.503 383.118 571.813 382.928C574.193 381.448 571.873 392.058 568.413 398.468C567.623 399.928 566.983 401.888 566.983 402.818C566.983 403.758 566.353 405.938 565.583 407.668C564.803 409.398 563.933 412.538 563.633 414.648C563.173 417.828 563.313 418.288 564.463 417.338C565.583 416.398 565.903 416.808 566.163 419.458C566.423 422.088 567.233 423.128 570.243 424.708C572.313 425.798 573.663 426.938 573.243 427.248C571.233 428.748 572.353 431.948 575.633 434.068C579.633 436.648 583.983 437.968 583.983 436.598C583.983 436.088 585.283 435.858 586.863 436.088C588.453 436.318 590.053 436.018 590.423 435.418C590.793 434.808 592.383 434.318 593.963 434.318C595.533 434.318 596.993 433.788 597.203 433.148C597.533 432.178 603.443 431.758 606.713 432.468C607.133 432.568 608.663 432.148 610.113 431.548C613.073 430.328 616.853 423.138 621.563 409.818C622.533 407.068 623.713 404.308 624.183 403.688C624.653 403.058 626.123 397.718 627.463 391.818C629.963 380.758 630.933 378.198 631.043 382.398C631.103 384.628 631.173 384.658 631.923 382.818C632.183 382.168 632.703 379.968 633.293 377.098C624.343 424.908 600.683 469.608 565.803 503.928C525.493 543.578 476.523 564.978 421.483 566.998C386.043 568.288 353.683 561.148 320.983 544.828C301.233 534.968 292.803 529.428 273.453 513.568C269.923 510.678 266.533 508.318 265.923 508.318C265.303 508.318 256.623 516.308 246.643 526.068C179.273 591.918 122.943 646.678 121.823 647.398C121.333 647.708 112.933 655.808 103.173 665.398C80.0626 688.068 72.7526 693.738 63.4826 696.168C56.3826 698.028 44.8826 698.328 38.2726 696.818C12.2426 690.858 -4.22736 663.718 2.51264 637.858C5.99264 624.508 10.6126 618.718 40.0926 590.738C66.7026 565.478 131.913 502.458 159.483 475.348C163.133 471.758 166.933 468.028 170.683 464.348C162.923 472.248 158.473 476.938 160.733 474.848C163.073 472.688 164.983 471.338 164.983 471.868C164.973 472.388 159.463 478.288 152.733 484.968C131.753 505.788 122.873 515.288 122.473 517.348C122.273 518.438 121.823 519.778 121.483 520.318C121.143 520.868 121.253 521.318 121.713 521.318C122.183 521.318 123.003 522.778 123.523 524.558C124.073 526.398 125.553 528.318 126.983 529.018C128.363 529.688 130.463 531.468 131.673 532.968C133.683 535.468 134.083 535.588 136.633 534.428C139.033 533.338 139.573 533.408 140.693 534.938C141.403 535.908 141.983 537.068 141.983 537.508C141.983 537.958 142.613 538.318 143.373 538.318C145.023 538.318 146.143 540.748 145.393 542.698C145.053 543.568 145.803 544.308 147.423 544.718C150.253 545.428 150.433 545.998 149.003 549.748C148.473 551.168 148.423 552.318 148.913 552.318C149.393 552.318 155.113 547.288 161.633 541.148ZM479.483 5.06803C479.143 5.02803 478.803 4.98803 478.483 4.94803L473.483 4.38803L479.483 5.83803C489.503 8.26803 493.203 9.42804 492.653 9.97804C492.363 10.268 490.633 10.048 488.803 9.48803C483.963 8.00803 463.053 4.45803 451.483 3.15803C437.253 1.55803 400.643 1.55804 387.483 3.14804C372.733 4.93804 356.563 8.12803 356.153 9.33803C355.963 9.87803 355.033 10.318 354.063 10.318C351.623 10.318 350.803 11.398 352.073 12.928C353.463 14.598 352.393 16.318 349.983 16.318C348.923 16.318 347.513 17.498 346.783 18.998C345.133 22.378 343.333 22.998 342.523 20.458C341.973 18.708 341.223 18.538 335.783 18.958C331.403 19.298 329.443 19.058 328.863 18.128C328.393 17.368 326.193 16.818 323.603 16.818C317.193 16.818 315.463 19.168 321.543 19.638C324.133 19.838 326.473 22.318 324.063 22.318C322.463 22.318 322.753 26.288 324.403 26.928C326.373 27.678 327.303 30.498 325.883 31.378C324.463 32.258 331.133 39.318 333.383 39.318C334.193 39.318 335.153 40.268 335.513 41.428C336.203 43.568 335.583 44.318 326.153 52.708C322.443 56.008 321.023 55.278 321.003 50.048C320.983 47.998 321.643 47.018 323.473 46.318C324.843 45.798 326.643 45.638 327.473 45.958C328.433 46.318 328.983 45.948 328.983 44.928C328.983 44.038 328.313 43.318 327.483 43.318C326.653 43.318 326.053 42.978 326.143 42.568C326.463 41.048 324.733 38.318 323.443 38.318C322.713 38.318 321.833 39.228 321.483 40.328C321.123 41.438 320.463 42.108 319.993 41.828C319.533 41.538 317.993 41.748 316.563 42.288C314.573 43.038 313.983 43.958 313.983 46.278C313.983 48.808 313.623 49.258 311.733 49.058C310.293 48.908 309.483 49.358 309.483 50.318C309.483 51.188 310.573 51.948 312.083 52.118C314.253 52.368 314.603 52.828 314.213 54.868C313.883 56.618 314.193 57.318 315.303 57.318C316.203 57.318 316.803 58.098 316.723 59.168C316.613 60.548 315.813 60.988 313.533 60.918C311.853 60.858 310.443 61.268 310.383 61.818C310.333 62.368 311.173 62.668 312.243 62.488C314.163 62.158 314.163 62.208 312.343 64.708C311.323 66.108 310.013 67.268 309.443 67.288C307.763 67.338 307.933 71.318 309.613 71.318C310.933 71.318 310.933 71.518 309.553 72.888C305.793 76.648 309.273 77.488 315.483 74.318C317.643 73.218 320.103 72.308 320.943 72.298C321.793 72.288 323.603 71.398 324.983 70.318C326.363 69.238 328.163 68.348 328.993 68.338C329.823 68.328 337.473 66.558 345.993 64.408C354.513 62.268 367.563 59.558 374.983 58.388C382.403 57.218 390.983 55.788 394.033 55.198C403.563 53.368 450.513 57.198 444.483 59.318C443.093 59.808 444.323 60.238 448.483 60.738C450.003 60.918 451.513 61.118 453.023 61.318C441.013 59.808 428.373 59.138 414.483 59.168C390.113 59.228 366.203 61.978 348.983 66.708C335.833 70.328 332.823 71.308 321.003 75.828C272.803 94.268 229.263 129.248 200.283 172.818C179.253 204.438 165.243 238.328 158.543 273.818C154.193 296.808 153.493 304.758 153.563 330.318C153.643 363.898 156.103 381.808 164.243 408.138L168.363 421.458L145.923 443.338C133.583 455.368 122.963 465.238 122.333 465.268C121.693 465.298 120.713 464.078 120.153 462.568C119.593 461.058 118.163 457.348 116.973 454.318C112.633 443.208 106.073 422.418 104.003 413.248C99.7926 394.508 99.0426 390.648 97.5626 380.318C93.5626 352.268 93.1126 315.678 96.4226 288.318C99.6026 262.068 108.413 224.328 114.523 210.818C115.263 209.168 117.533 203.548 119.563 198.318C128.183 176.138 145.143 146.348 160.623 126.198C185.813 93.408 216.203 65.548 247.983 46.118C257.173 40.498 276.233 30.258 280.983 28.388C282.903 27.628 286.863 25.948 289.763 24.658C292.663 23.368 295.433 22.318 295.923 22.318C296.403 22.318 298.523 21.458 300.643 20.398C314.033 13.708 351.593 4.70804 378.983 1.61804C398.533 -0.581962 434.833 -0.531962 452.983 1.72804C460.403 2.65804 470.143 3.83804 474.613 4.35804C476.143 4.53804 477.763 4.77803 479.483 5.06803ZM268.733 802.868L268.483 971.818L190.903 972.078C148.243 972.218 113.023 972.028 112.653 971.658C112.283 971.288 111.983 910.648 111.993 836.898L112.003 702.818L140.453 675.328C156.093 660.218 169.363 647.688 169.943 647.498C170.663 647.258 170.983 688.298 170.983 780.238V913.318H209.983V607.688L210.203 685.748C210.333 731.168 210.663 753.778 210.983 739.818C211.293 726.618 211.633 717.208 211.763 718.918C211.883 720.618 212.423 732.318 212.973 744.918C213.963 767.988 214.863 784.858 215.443 791.318C215.623 793.238 215.813 795.408 215.873 796.138C215.943 796.968 216.693 797.228 217.903 796.848C218.953 796.508 220.103 796.708 220.453 797.278C220.813 797.848 222.653 798.318 224.543 798.318C226.433 798.318 227.983 798.738 227.983 799.238C227.983 799.748 229.093 801.488 230.453 803.098C231.813 804.718 232.603 806.388 232.203 806.808C231.803 807.228 232.973 807.368 234.783 807.108C238.983 806.528 240.653 808.918 238.343 812.208C236.673 814.608 237.193 817.568 239.223 817.148C239.913 816.998 241.733 817.708 243.253 818.728C245.283 820.078 245.943 821.268 245.753 823.198C245.513 825.478 245.823 825.788 248.093 825.548C250.843 825.268 257.073 830.168 258.293 833.568C258.633 834.528 259.573 835.318 260.363 835.318C262.263 835.318 262.773 831.438 263.473 811.818C263.793 803.018 264.243 793.568 264.493 790.818C264.733 788.068 265.203 772.988 265.523 757.318C266.003 734.258 266.393 728.608 267.553 727.708C268.753 726.768 268.983 719.288 268.983 680.018C268.983 653.438 269.373 633.198 269.883 632.878C270.363 632.578 275.633 634.658 281.733 637.528C275.563 634.628 270.263 632.638 269.813 633.088C269.363 633.538 268.873 709.938 268.733 802.868ZM414.863 908.838C417.073 906.668 418.763 887.518 419.423 856.958C420.143 823.578 420.833 812.108 422.073 812.878C422.163 812.928 422.243 812.388 422.323 811.298C422.383 812.608 422.443 813.318 422.493 813.318C422.613 813.318 422.723 808.508 422.803 800.528L422.733 837.718L422.483 971.818L307.983 972.338V688.318L308.193 762.568C308.313 803.408 308.653 829.618 308.943 820.818L309.483 804.818L310.223 817.818C311.663 843.338 313.243 860.848 314.263 862.798C314.833 863.888 316.393 865.638 317.723 866.688C319.063 867.738 320.513 869.548 320.963 870.708C321.743 872.728 321.823 872.708 322.853 870.068C324.183 866.688 324.713 866.668 328.983 869.818C332.103 872.118 336.983 873.228 336.983 871.638C336.983 871.268 335.633 869.808 333.973 868.388C331.853 866.578 331.233 865.418 331.863 864.438C333.013 862.668 335.303 864.038 334.543 866.028C334.123 867.118 334.423 867.368 335.583 866.918C337.593 866.148 345.813 870.128 347.063 872.468C347.573 873.408 348.833 874.448 349.873 874.788C350.913 875.118 352.003 876.268 352.283 877.348C352.793 879.328 354.463 879.758 360.483 879.478C363.333 879.348 363.363 879.388 361.153 880.328C358.443 881.468 358.793 883.958 361.593 883.528C366.953 882.708 369.553 883.288 371.513 885.758C375.183 890.358 379.753 888.088 378.473 882.288C377.823 879.318 377.933 879.178 380.633 879.488C383.673 879.838 385.423 883.318 382.553 883.318C381.693 883.318 380.983 883.768 380.983 884.318C380.983 884.868 382.103 885.318 383.483 885.318C384.863 885.318 385.983 885.768 385.983 886.318C385.983 886.868 386.603 887.318 387.363 887.318C388.123 887.318 389.053 888.328 389.433 889.568C389.853 890.928 390.323 891.328 390.633 890.568C391.433 888.638 392.553 889.078 393.803 891.818C394.723 893.828 395.673 894.328 398.713 894.348C402.203 894.378 402.343 894.488 400.593 895.818C399.553 896.598 398.203 897.438 397.593 897.658C396.873 897.928 397.073 898.698 398.133 899.818C399.703 901.458 399.843 901.438 400.923 899.438C403.313 894.968 406.043 897.628 406.183 904.568C406.283 909.708 407.693 911.608 410.813 910.838C412.283 910.478 414.103 909.578 414.863 908.838ZM532.953 397.068C532.943 396.378 531.593 394.048 529.953 391.888C526.773 387.688 526.003 385.258 528.503 387.338C529.633 388.278 529.873 388.328 529.543 387.348C533.813 393.348 536.983 397.988 536.983 398.288C536.983 398.628 536.443 399.458 535.783 400.118C534.043 401.858 293.923 401.858 292.183 400.118C290.223 398.158 290.693 396.868 296.923 387.118C300.183 382.008 304.903 374.438 307.413 370.318C315.633 356.798 332.953 329.458 343.513 313.318C349.693 303.868 357.723 290.928 362.323 283.148C362.433 283.128 362.603 283.048 362.833 282.918C365.833 281.058 362.163 288.688 353.573 302.178C351.243 305.828 348.593 310.448 347.683 312.428C346.763 314.418 345.333 316.608 344.503 317.298C343.663 317.998 342.983 319.178 342.983 319.938C342.983 320.698 342.573 321.318 342.063 321.318C341.553 321.318 340.843 322.658 340.483 324.308C340.123 325.948 339.413 327.548 338.903 327.868C337.653 328.638 337.723 334.318 338.983 334.318C339.533 334.318 339.983 334.988 339.983 335.818C339.983 336.648 339.573 337.318 339.063 337.318C338.563 337.318 340.413 339.568 343.173 342.318C345.943 345.068 348.713 347.328 349.343 347.328C349.973 347.338 351.483 348.888 352.703 350.768C354.663 353.798 355.313 354.138 358.203 353.668C361.113 353.198 362.133 353.758 367.323 358.618C372.523 363.508 376.293 365.468 380.973 365.738C381.783 365.788 382.603 366.608 382.793 367.568C382.983 368.528 383.573 369.318 384.113 369.318C384.653 369.318 384.823 369.768 384.483 370.318C384.143 370.868 384.793 371.318 385.923 371.318C387.053 371.318 387.983 371.798 387.983 372.388C387.983 373.948 391.103 376.808 392.913 376.908C395.543 377.058 400.983 379.688 400.983 380.818C400.983 381.398 400.063 382.658 398.943 383.618C396.283 385.898 397.253 387.318 401.483 387.318C405.213 387.318 405.893 387.938 406.203 391.658C406.313 393.048 406.653 394.108 406.943 394.018C407.243 393.938 409.503 394.438 411.983 395.128C421.293 397.738 533.013 399.528 532.953 397.068ZM165.153 705.568C166.623 701.438 167.003 668.088 165.643 662.958C164.943 660.288 164.773 660.198 163.103 661.708C162.123 662.588 160.793 663.318 160.133 663.318C156.423 663.318 137.953 680.348 134.713 686.768C133.243 689.668 133.283 689.748 137.093 692.518C139.223 694.058 141.663 695.318 142.513 695.318C143.363 695.318 145.783 696.198 147.893 697.268C150.693 698.698 151.873 700.038 152.323 702.268C152.793 704.638 153.463 705.318 155.303 705.318C156.603 705.318 158.483 706.218 159.483 707.318C162.143 710.248 163.663 709.778 165.153 705.568ZM382.533 278.408C384.643 281.238 387.393 285.088 391.083 290.318C398.653 301.048 407.463 313.498 410.663 317.998C413.863 322.498 419.913 331.048 424.103 336.998C428.303 342.948 432.653 348.638 433.773 349.648C435.793 351.458 435.893 351.398 440.393 345.658C442.913 342.458 445.533 338.678 446.223 337.268C446.913 335.858 451.693 329.028 456.843 322.098C457.693 320.948 458.503 319.878 459.263 318.888C451.073 329.928 447.383 335.198 449.403 333.008C453.503 328.558 452.463 330.818 445.553 341.358C438.643 351.908 436.213 354.048 433.053 352.358C430.413 350.948 425.203 344.398 419.093 334.818C413.723 326.418 412.823 324.168 415.733 326.448C417.303 327.678 417.353 327.648 416.163 326.128C415.433 325.198 414.303 324.638 413.653 324.888C413.003 325.138 411.353 323.538 409.993 321.328C408.623 319.128 407.163 317.318 406.743 317.318C406.323 317.318 405.983 316.798 405.983 316.148C405.983 315.508 405.293 314.278 404.453 313.398C402.583 311.458 394.533 300.498 389.053 292.418C384.723 286.038 383.713 283.048 386.693 285.448C387.833 286.358 387.633 285.728 386.123 283.568C383.633 280.008 382.693 279.398 383.683 281.978C384.543 284.228 382.333 282.848 380.963 280.288C380.113 278.698 380.223 278.468 381.573 278.988C382.693 279.418 382.963 279.358 382.533 278.408ZM557.743 455.888C558.063 455.578 557.823 455.318 557.213 455.318C556.613 455.318 555.863 454.528 555.553 453.568C555.243 452.608 553.643 450.238 551.993 448.318C550.343 446.398 548.983 444.478 548.983 444.068C548.983 443.658 548.453 443.318 547.793 443.318C546.323 443.318 541.983 447.308 541.983 448.668C541.983 449.208 541.243 450.488 540.333 451.488C538.783 453.198 538.813 453.438 540.793 455.158C542.513 456.638 544.303 456.948 550.053 456.728C553.973 456.578 557.433 456.198 557.743 455.888ZM186.793 448.588C192.233 443.268 196.743 438.888 199.383 436.338L211.283 424.858L211.313 424.938L202.763 433.158C198.013 437.738 194.273 442.148 194.353 443.108C194.423 444.108 193.773 444.818 192.753 444.828C191.813 444.838 190.233 445.688 189.253 446.718C188.283 447.758 188.103 448.248 188.863 447.818C191.873 446.118 188.143 450.268 177.373 460.628C171.253 466.508 165.863 471.318 165.383 471.318C164.903 471.318 169.673 466.148 175.983 459.818C181.443 454.338 185.883 449.728 186.793 448.588ZM329.983 31.948C329.983 31.198 330.883 29.448 331.983 28.048C333.083 26.648 333.983 24.338 333.983 22.908C333.983 18.418 337.573 20.178 338.443 25.098C338.923 27.838 338.713 28.318 337.033 28.318C335.743 28.318 335.233 28.808 335.583 29.718C335.873 30.488 335.643 31.408 335.063 31.768C334.433 32.158 334.233 31.828 334.563 30.968C334.873 30.178 334.643 29.228 334.053 28.858C333.023 28.218 332.573 29.478 332.913 32.068C332.993 32.758 332.373 33.318 331.523 33.318C330.673 33.318 329.983 32.708 329.983 31.948ZM488.393 68.758C493.313 70.178 498.113 71.738 502.773 73.448C507.323 75.108 512.503 76.628 514.273 76.808C518.973 77.288 525.263 79.628 525.743 81.068C526.003 81.878 525.513 82.118 524.313 81.758C523.313 81.448 529.233 84.708 537.483 89.008C558.923 100.168 577.303 113.208 594.013 129.298C576.323 112.288 556.743 98.708 533.443 87.058C517.543 79.108 502.963 73.118 488.393 68.758ZM366.483 275.538C366.953 274.858 367.713 273.928 368.573 272.998C370.533 270.888 371.923 270.278 374.243 270.508C375.693 270.658 376.873 271.308 379.493 274.478C378.973 274.098 378.453 273.838 377.983 273.748C377.713 273.698 376.173 273.288 374.563 272.838C372.163 272.168 371.323 272.418 369.843 274.248C368.803 275.528 367.543 276.158 366.853 275.738C366.713 275.648 366.583 275.578 366.483 275.538ZM528.453 385.818C528.103 385.638 527.713 385.588 527.353 385.728C525.853 386.308 522.483 381.938 523.353 380.528C523.763 379.858 523.613 379.278 517.533 370.618C520.383 374.598 523.523 378.978 526.953 383.738C527.463 384.438 527.963 385.138 528.453 385.818ZM636.103 357.668C635.923 359.428 635.723 361.198 635.503 362.958C636.343 353.398 636.703 339.398 636.573 326.288C636.593 326.308 636.613 326.318 636.633 326.318C636.643 326.318 636.653 326.318 636.653 326.318C636.923 338.588 636.783 350.958 636.103 357.668ZM363.143 281.748C364.903 278.738 365.983 276.758 365.983 276.468C365.983 276.368 366.073 276.168 366.243 275.898C366.283 275.978 366.333 276.068 366.393 276.168C367.413 277.828 366.113 281.318 364.473 281.318C364.043 281.318 363.563 281.488 363.143 281.748ZM198.433 438.488C200.613 436.198 202.553 434.318 202.743 434.318C203.653 434.318 200.033 438.478 197.413 440.448C195.173 442.138 195.413 441.678 198.433 438.488ZM318.983 44.318C318.983 43.768 319.433 43.318 319.983 43.318C320.533 43.318 320.983 43.768 320.983 44.318C320.983 44.868 320.533 45.318 319.983 45.318C319.433 45.318 318.983 44.868 318.983 44.318ZM434.983 351.318C434.983 350.768 434.503 350.318 433.923 350.318C433.343 350.318 433.143 350.768 433.483 351.318C433.823 351.868 434.303 352.318 434.543 352.318C434.783 352.318 434.983 351.868 434.983 351.318ZM519.483 79.318C519.143 78.768 518.333 78.328 517.673 78.338C516.963 78.338 517.083 78.738 517.983 79.318C519.903 80.558 520.253 80.558 519.483 79.318ZM511.383 13.508C528.863 19.288 547.793 27.038 562.843 34.918C548.533 27.418 528.883 19.398 511.383 13.508ZM469.743 308.678C472.563 307.858 474.753 309.998 477.663 314.608C474.953 310.318 472.413 308.338 469.743 308.678ZM759.343 965.068C759.663 961.078 760.163 951.748 760.453 944.318C760.023 955.368 759.683 962.168 759.233 966.298C759.273 965.918 759.303 965.508 759.343 965.068ZM630.963 276.668C632.313 282.428 633.523 288.338 634.573 294.318C634.593 294.398 634.603 294.478 634.623 294.558C633.723 289.558 632.743 284.658 631.673 279.868C631.443 278.798 631.203 277.738 630.963 276.668ZM713.063 963.198C713.913 963.398 714.723 963.588 715.483 963.778C717.453 964.248 719.623 964.758 721.903 965.278C718.613 964.538 715.683 963.848 713.483 963.298C713.343 963.268 713.203 963.228 713.063 963.198ZM755.983 972.228C756.033 972.228 756.073 972.238 756.113 972.238C756.673 972.258 757.103 972.258 757.463 972.178C757.273 972.278 757.073 972.318 756.853 972.318C756.693 972.318 756.393 972.288 755.983 972.228ZM647.873 948.848C637.843 946.758 630.563 945.318 629.733 945.318C630.593 945.318 637.803 946.748 647.873 948.848ZM576.023 362.748C576.193 361.958 576.363 361.148 576.543 360.318C577.273 356.838 577.903 350.778 578.313 344.348C577.903 350.778 577.283 356.838 576.543 360.318C576.373 361.118 576.203 361.928 576.023 362.748ZM422.993 703.618L422.983 707.438V703.618H422.993Z" fill="#164EBE"/>
</svg>
